<?xml version="1.0" encoding="UTF-8" standalone="no"?>
<!DOCTYPE svg PUBLIC "-//W3C//DTD SVG 1.1//EN" "http://www.w3.org/Graphics/SVG/1.1/DTD/svg11.dtd">
<svg width="100%" height="100%" viewBox="0 0 4547 841" version="1.1" xmlns="http://www.w3.org/2000/svg" xmlns:xlink="http://www.w3.org/1999/xlink" xml:space="preserve" xmlns:serif="http://www.serif.com/" style="fill-rule:evenodd;clip-rule:evenodd;stroke-linejoin:round;stroke-miterlimit:2;">
    <g transform="matrix(1,0,0,1,-29277.1,-228.654)">
        <g id="world-logo" serif:id="world logo" transform="matrix(1.84889,0,0,2.17317,7920.33,-375.594)">
            <rect x="11551.1" y="278.049" width="2459.01" height="386.592" style="fill:none;"/>
            <g transform="matrix(0.243666,0,0,0.207307,11784.9,298.04)">
                <g transform="matrix(1195.36,0,0,1195.36,1348,1300.75)">
                    <path d="M0.071,-0.72C0.071,-0.727 0.073,-0.732 0.077,-0.736C0.08,-0.74 0.086,-0.743 0.093,-0.743L0.413,-0.743C0.436,-0.743 0.457,-0.739 0.478,-0.733C0.498,-0.727 0.517,-0.718 0.534,-0.707C0.551,-0.696 0.566,-0.682 0.58,-0.667C0.593,-0.651 0.605,-0.634 0.614,-0.617C0.624,-0.599 0.631,-0.58 0.636,-0.56C0.641,-0.54 0.644,-0.52 0.644,-0.5C0.644,-0.47 0.638,-0.44 0.627,-0.412C0.616,-0.383 0.601,-0.357 0.581,-0.335C0.561,-0.313 0.537,-0.295 0.509,-0.281C0.481,-0.267 0.45,-0.26 0.416,-0.26L0.265,-0.26L0.265,-0.022C0.265,-0.007 0.257,-0 0.242,-0L0.093,-0C0.086,-0 0.081,-0.002 0.077,-0.005C0.073,-0.009 0.071,-0.014 0.071,-0.022L0.071,-0.72ZM0.448,-0.501C0.448,-0.51 0.446,-0.521 0.442,-0.531C0.439,-0.541 0.434,-0.549 0.427,-0.557C0.42,-0.565 0.412,-0.572 0.403,-0.577C0.393,-0.582 0.383,-0.584 0.371,-0.584L0.265,-0.584L0.265,-0.417L0.371,-0.417C0.383,-0.417 0.393,-0.419 0.403,-0.424C0.413,-0.429 0.421,-0.435 0.427,-0.443C0.434,-0.451 0.439,-0.46 0.442,-0.47C0.446,-0.48 0.448,-0.49 0.448,-0.501Z" style="fill:white;fill-rule:nonzero;"/>
                </g>
                <g transform="matrix(1195.36,0,0,1195.36,2061.03,1300.75)">
                    <path d="M0.293,-0.723C0.293,-0.725 0.294,-0.727 0.296,-0.73C0.298,-0.732 0.3,-0.734 0.303,-0.736C0.306,-0.738 0.309,-0.74 0.312,-0.741C0.315,-0.742 0.317,-0.743 0.32,-0.743L0.448,-0.743C0.454,-0.743 0.459,-0.741 0.463,-0.737C0.467,-0.734 0.47,-0.731 0.472,-0.728L0.484,-0.7L0.747,-0.023C0.749,-0.016 0.749,-0.01 0.745,-0.006C0.741,-0.002 0.735,-0 0.726,-0L0.583,-0C0.575,-0 0.569,-0.001 0.565,-0.004C0.561,-0.007 0.557,-0.012 0.555,-0.019C0.548,-0.035 0.542,-0.052 0.536,-0.069C0.529,-0.086 0.523,-0.103 0.517,-0.12L0.251,-0.12L0.213,-0.019C0.208,-0.006 0.2,-0 0.187,-0L0.04,-0C0.033,-0 0.028,-0.002 0.024,-0.005C0.02,-0.008 0.019,-0.013 0.022,-0.02L0.293,-0.723ZM0.384,-0.509C0.378,-0.492 0.371,-0.474 0.365,-0.454C0.358,-0.434 0.352,-0.415 0.346,-0.395C0.339,-0.375 0.333,-0.355 0.326,-0.335C0.32,-0.316 0.313,-0.298 0.307,-0.281L0.461,-0.281L0.384,-0.509Z" style="fill:white;fill-rule:nonzero;"/>
                </g>
                <g transform="matrix(1195.36,0,0,1195.36,2936.64,1300.75)">
                    <path d="M0.174,-0.24C0.18,-0.235 0.187,-0.229 0.196,-0.221C0.205,-0.213 0.215,-0.205 0.226,-0.198C0.243,-0.186 0.26,-0.177 0.277,-0.171C0.293,-0.165 0.311,-0.162 0.329,-0.162C0.346,-0.162 0.36,-0.163 0.372,-0.167C0.383,-0.171 0.392,-0.176 0.399,-0.183C0.406,-0.189 0.41,-0.196 0.413,-0.205C0.416,-0.213 0.418,-0.222 0.418,-0.231C0.418,-0.241 0.414,-0.251 0.406,-0.259C0.398,-0.267 0.388,-0.274 0.377,-0.281C0.366,-0.287 0.354,-0.292 0.342,-0.297C0.329,-0.301 0.319,-0.305 0.31,-0.308C0.27,-0.322 0.235,-0.337 0.205,-0.353C0.175,-0.369 0.15,-0.387 0.13,-0.407C0.11,-0.427 0.095,-0.449 0.085,-0.473C0.075,-0.497 0.07,-0.523 0.07,-0.553C0.07,-0.584 0.076,-0.612 0.088,-0.637C0.101,-0.662 0.119,-0.684 0.142,-0.702C0.165,-0.72 0.193,-0.734 0.226,-0.744C0.258,-0.754 0.295,-0.759 0.335,-0.759C0.365,-0.759 0.394,-0.755 0.422,-0.748C0.45,-0.741 0.478,-0.731 0.505,-0.716C0.516,-0.709 0.527,-0.702 0.537,-0.695C0.547,-0.688 0.556,-0.681 0.564,-0.674C0.571,-0.667 0.577,-0.661 0.582,-0.655C0.586,-0.649 0.589,-0.644 0.589,-0.64C0.589,-0.635 0.587,-0.631 0.585,-0.628C0.583,-0.624 0.58,-0.62 0.576,-0.615L0.499,-0.534C0.493,-0.528 0.488,-0.525 0.482,-0.525C0.477,-0.525 0.473,-0.526 0.469,-0.529C0.465,-0.532 0.461,-0.535 0.457,-0.539L0.452,-0.543C0.445,-0.549 0.438,-0.555 0.43,-0.561C0.422,-0.567 0.413,-0.572 0.404,-0.577C0.394,-0.582 0.384,-0.586 0.374,-0.589C0.364,-0.592 0.353,-0.594 0.343,-0.594C0.332,-0.594 0.321,-0.593 0.312,-0.591C0.302,-0.589 0.293,-0.586 0.286,-0.582C0.279,-0.578 0.273,-0.573 0.269,-0.566C0.264,-0.56 0.262,-0.552 0.262,-0.543C0.262,-0.533 0.264,-0.525 0.269,-0.518C0.274,-0.511 0.281,-0.505 0.29,-0.499C0.299,-0.493 0.311,-0.488 0.325,-0.483C0.339,-0.478 0.355,-0.472 0.373,-0.466C0.408,-0.454 0.441,-0.442 0.471,-0.429C0.501,-0.416 0.526,-0.401 0.548,-0.384C0.57,-0.366 0.587,-0.345 0.599,-0.321C0.611,-0.297 0.617,-0.267 0.617,-0.233C0.617,-0.196 0.61,-0.163 0.595,-0.133C0.58,-0.103 0.559,-0.078 0.533,-0.057C0.507,-0.036 0.476,-0.019 0.441,-0.008C0.405,0.004 0.367,0.01 0.327,0.01C0.288,0.01 0.251,0.003 0.214,-0.011C0.177,-0.025 0.142,-0.043 0.11,-0.066C0.097,-0.076 0.085,-0.085 0.076,-0.095L0.053,-0.119C0.053,-0.119 0.052,-0.12 0.052,-0.12C0.052,-0.12 0.051,-0.12 0.051,-0.121C0.051,-0.121 0.05,-0.122 0.05,-0.122C0.05,-0.122 0.049,-0.122 0.049,-0.123C0.041,-0.131 0.038,-0.138 0.038,-0.143C0.038,-0.148 0.041,-0.155 0.049,-0.162L0.136,-0.244C0.142,-0.249 0.148,-0.252 0.153,-0.252C0.156,-0.252 0.159,-0.251 0.162,-0.249C0.165,-0.247 0.169,-0.244 0.174,-0.24Z" style="fill:white;fill-rule:nonzero;"/>
                </g>
                <g transform="matrix(1195.36,0,0,1195.36,3720.8,1300.75)">
                    <path d="M0.174,-0.24C0.18,-0.235 0.187,-0.229 0.196,-0.221C0.205,-0.213 0.215,-0.205 0.226,-0.198C0.243,-0.186 0.26,-0.177 0.277,-0.171C0.293,-0.165 0.311,-0.162 0.329,-0.162C0.346,-0.162 0.36,-0.163 0.372,-0.167C0.383,-0.171 0.392,-0.176 0.399,-0.183C0.406,-0.189 0.41,-0.196 0.413,-0.205C0.416,-0.213 0.418,-0.222 0.418,-0.231C0.418,-0.241 0.414,-0.251 0.406,-0.259C0.398,-0.267 0.388,-0.274 0.377,-0.281C0.366,-0.287 0.354,-0.292 0.342,-0.297C0.329,-0.301 0.319,-0.305 0.31,-0.308C0.27,-0.322 0.235,-0.337 0.205,-0.353C0.175,-0.369 0.15,-0.387 0.13,-0.407C0.11,-0.427 0.095,-0.449 0.085,-0.473C0.075,-0.497 0.07,-0.523 0.07,-0.553C0.07,-0.584 0.076,-0.612 0.088,-0.637C0.101,-0.662 0.119,-0.684 0.142,-0.702C0.165,-0.72 0.193,-0.734 0.226,-0.744C0.258,-0.754 0.295,-0.759 0.335,-0.759C0.365,-0.759 0.394,-0.755 0.422,-0.748C0.45,-0.741 0.478,-0.731 0.505,-0.716C0.516,-0.709 0.527,-0.702 0.537,-0.695C0.547,-0.688 0.556,-0.681 0.564,-0.674C0.571,-0.667 0.577,-0.661 0.582,-0.655C0.586,-0.649 0.589,-0.644 0.589,-0.64C0.589,-0.635 0.587,-0.631 0.585,-0.628C0.583,-0.624 0.58,-0.62 0.576,-0.615L0.499,-0.534C0.493,-0.528 0.488,-0.525 0.482,-0.525C0.477,-0.525 0.473,-0.526 0.469,-0.529C0.465,-0.532 0.461,-0.535 0.457,-0.539L0.452,-0.543C0.445,-0.549 0.438,-0.555 0.43,-0.561C0.422,-0.567 0.413,-0.572 0.404,-0.577C0.394,-0.582 0.384,-0.586 0.374,-0.589C0.364,-0.592 0.353,-0.594 0.343,-0.594C0.332,-0.594 0.321,-0.593 0.312,-0.591C0.302,-0.589 0.293,-0.586 0.286,-0.582C0.279,-0.578 0.273,-0.573 0.269,-0.566C0.264,-0.56 0.262,-0.552 0.262,-0.543C0.262,-0.533 0.264,-0.525 0.269,-0.518C0.274,-0.511 0.281,-0.505 0.29,-0.499C0.299,-0.493 0.311,-0.488 0.325,-0.483C0.339,-0.478 0.355,-0.472 0.373,-0.466C0.408,-0.454 0.441,-0.442 0.471,-0.429C0.501,-0.416 0.526,-0.401 0.548,-0.384C0.57,-0.366 0.587,-0.345 0.599,-0.321C0.611,-0.297 0.617,-0.267 0.617,-0.233C0.617,-0.196 0.61,-0.163 0.595,-0.133C0.58,-0.103 0.559,-0.078 0.533,-0.057C0.507,-0.036 0.476,-0.019 0.441,-0.008C0.405,0.004 0.367,0.01 0.327,0.01C0.288,0.01 0.251,0.003 0.214,-0.011C0.177,-0.025 0.142,-0.043 0.11,-0.066C0.097,-0.076 0.085,-0.085 0.076,-0.095L0.053,-0.119C0.053,-0.119 0.052,-0.12 0.052,-0.12C0.052,-0.12 0.051,-0.12 0.051,-0.121C0.051,-0.121 0.05,-0.122 0.05,-0.122C0.05,-0.122 0.049,-0.122 0.049,-0.123C0.041,-0.131 0.038,-0.138 0.038,-0.143C0.038,-0.148 0.041,-0.155 0.049,-0.162L0.136,-0.244C0.142,-0.249 0.148,-0.252 0.153,-0.252C0.156,-0.252 0.159,-0.251 0.162,-0.249C0.165,-0.247 0.169,-0.244 0.174,-0.24Z" style="fill:white;fill-rule:nonzero;"/>
                </g>
                <g transform="matrix(1195.36,0,0,1195.36,4479.85,1300.75)">
                    <path d="M0.286,-0.011C0.282,-0.016 0.279,-0.022 0.276,-0.028C0.273,-0.034 0.27,-0.04 0.268,-0.046C0.225,-0.159 0.182,-0.272 0.14,-0.383C0.097,-0.494 0.054,-0.607 0.011,-0.72C0.011,-0.722 0.011,-0.723 0.01,-0.725C0.01,-0.726 0.01,-0.727 0.01,-0.729C0.01,-0.738 0.016,-0.743 0.028,-0.743L0.189,-0.743C0.202,-0.743 0.21,-0.736 0.215,-0.724L0.368,-0.268L0.51,-0.724C0.514,-0.736 0.523,-0.743 0.537,-0.743L0.7,-0.743C0.707,-0.743 0.713,-0.741 0.716,-0.738C0.719,-0.735 0.721,-0.732 0.721,-0.727C0.721,-0.724 0.72,-0.723 0.72,-0.722L0.72,-0.72L0.631,-0.465L0.698,-0.269L0.86,-0.724C0.865,-0.736 0.874,-0.743 0.888,-0.743L1.045,-0.743C1.053,-0.743 1.058,-0.741 1.061,-0.738C1.064,-0.735 1.066,-0.732 1.066,-0.727C1.066,-0.724 1.066,-0.723 1.066,-0.722L1.066,-0.72C1.043,-0.661 1.02,-0.603 0.996,-0.545C0.972,-0.486 0.949,-0.428 0.925,-0.37C0.901,-0.311 0.877,-0.253 0.854,-0.194C0.83,-0.136 0.807,-0.077 0.785,-0.019C0.784,-0.015 0.781,-0.011 0.776,-0.007C0.771,-0.002 0.766,-0 0.759,-0L0.637,-0C0.629,-0 0.624,-0.001 0.62,-0.004C0.616,-0.007 0.613,-0.011 0.612,-0.016L0.533,-0.224C0.521,-0.193 0.51,-0.163 0.499,-0.134C0.488,-0.105 0.477,-0.075 0.466,-0.045C0.464,-0.04 0.462,-0.035 0.46,-0.03C0.458,-0.025 0.456,-0.02 0.453,-0.016C0.45,-0.011 0.446,-0.008 0.442,-0.005C0.438,-0.002 0.434,-0 0.429,-0L0.307,-0C0.296,-0 0.289,-0.004 0.286,-0.011Z" style="fill:rgb(236,236,236);fill-rule:nonzero;"/>
                </g>
                <g transform="matrix(1195.36,0,0,1195.36,5702.71,1300.75)">
                    <path d="M0.239,-0.371C0.239,-0.343 0.244,-0.318 0.253,-0.294C0.262,-0.27 0.275,-0.249 0.292,-0.231C0.309,-0.213 0.329,-0.199 0.352,-0.189C0.375,-0.179 0.4,-0.174 0.428,-0.174C0.456,-0.174 0.481,-0.179 0.504,-0.189C0.527,-0.199 0.547,-0.213 0.564,-0.231C0.581,-0.249 0.594,-0.27 0.604,-0.294C0.613,-0.318 0.618,-0.343 0.618,-0.371C0.618,-0.398 0.613,-0.424 0.604,-0.448C0.594,-0.472 0.581,-0.494 0.564,-0.512C0.547,-0.53 0.527,-0.544 0.504,-0.554C0.481,-0.564 0.456,-0.57 0.428,-0.57C0.4,-0.57 0.375,-0.564 0.352,-0.554C0.329,-0.544 0.309,-0.53 0.292,-0.512C0.275,-0.494 0.262,-0.472 0.253,-0.448C0.244,-0.424 0.239,-0.398 0.239,-0.371ZM0.046,-0.371C0.046,-0.406 0.05,-0.44 0.06,-0.472C0.068,-0.505 0.081,-0.535 0.098,-0.564C0.115,-0.592 0.135,-0.618 0.158,-0.642C0.181,-0.665 0.207,-0.685 0.235,-0.701C0.263,-0.718 0.294,-0.731 0.326,-0.74C0.359,-0.749 0.393,-0.754 0.428,-0.754C0.463,-0.754 0.497,-0.749 0.53,-0.74C0.562,-0.731 0.593,-0.718 0.621,-0.701C0.649,-0.685 0.675,-0.665 0.699,-0.642C0.722,-0.618 0.742,-0.592 0.758,-0.564C0.775,-0.535 0.788,-0.505 0.797,-0.472C0.806,-0.44 0.81,-0.406 0.811,-0.371C0.81,-0.335 0.806,-0.301 0.797,-0.269C0.788,-0.236 0.775,-0.206 0.758,-0.178C0.742,-0.15 0.722,-0.124 0.699,-0.101C0.675,-0.078 0.649,-0.058 0.621,-0.041C0.593,-0.024 0.562,-0.012 0.53,-0.003C0.497,0.007 0.463,0.011 0.428,0.011C0.393,0.011 0.359,0.007 0.326,-0.003C0.294,-0.012 0.263,-0.024 0.235,-0.041C0.207,-0.058 0.181,-0.078 0.158,-0.101C0.135,-0.124 0.115,-0.15 0.098,-0.178C0.081,-0.206 0.068,-0.236 0.06,-0.269C0.05,-0.301 0.046,-0.335 0.046,-0.371Z" style="fill:rgb(236,236,236);fill-rule:nonzero;"/>
                </g>
                <g transform="matrix(1195.36,0,0,1195.36,6721.76,1300.75)">
                    <path d="M0.082,-0.72C0.082,-0.727 0.083,-0.732 0.087,-0.736C0.091,-0.74 0.096,-0.743 0.104,-0.743L0.427,-0.743C0.461,-0.743 0.493,-0.736 0.523,-0.723C0.553,-0.71 0.579,-0.693 0.602,-0.671C0.624,-0.649 0.641,-0.623 0.654,-0.594C0.667,-0.564 0.674,-0.533 0.674,-0.5C0.674,-0.477 0.67,-0.455 0.664,-0.435C0.658,-0.414 0.65,-0.395 0.639,-0.377C0.628,-0.359 0.614,-0.343 0.599,-0.329C0.584,-0.314 0.568,-0.302 0.55,-0.292L0.678,-0.05C0.68,-0.045 0.683,-0.039 0.687,-0.033C0.691,-0.027 0.693,-0.021 0.693,-0.017C0.693,-0.011 0.691,-0.007 0.687,-0.004C0.684,-0.001 0.679,-0 0.673,-0L0.502,-0C0.496,-0 0.491,-0.002 0.486,-0.005C0.482,-0.008 0.479,-0.013 0.478,-0.019L0.356,-0.247L0.275,-0.247L0.275,-0.022C0.275,-0.007 0.267,-0 0.252,-0L0.104,-0C0.097,-0 0.092,-0.002 0.088,-0.005C0.084,-0.009 0.082,-0.014 0.082,-0.022L0.082,-0.72ZM0.473,-0.498C0.473,-0.507 0.471,-0.518 0.468,-0.528C0.464,-0.538 0.459,-0.547 0.452,-0.555C0.445,-0.563 0.437,-0.57 0.428,-0.576C0.419,-0.582 0.408,-0.585 0.397,-0.587C0.388,-0.588 0.379,-0.588 0.371,-0.589C0.363,-0.589 0.354,-0.59 0.344,-0.59L0.275,-0.59L0.275,-0.406L0.367,-0.406C0.373,-0.406 0.378,-0.406 0.383,-0.407C0.388,-0.407 0.393,-0.407 0.399,-0.408C0.41,-0.409 0.421,-0.413 0.43,-0.418C0.439,-0.424 0.447,-0.431 0.454,-0.439C0.46,-0.447 0.465,-0.456 0.468,-0.466C0.471,-0.476 0.473,-0.487 0.473,-0.498Z" style="fill:rgb(236,236,236);fill-rule:nonzero;"/>
                </g>
                <g transform="matrix(1195.36,0,0,1195.36,7562.69,1300.75)">
                    <path d="M0.063,-0.721C0.063,-0.727 0.065,-0.732 0.069,-0.737C0.073,-0.741 0.079,-0.743 0.086,-0.743L0.234,-0.743C0.239,-0.743 0.244,-0.741 0.249,-0.737C0.254,-0.733 0.256,-0.728 0.257,-0.721L0.257,-0.177L0.532,-0.177C0.538,-0.177 0.543,-0.175 0.547,-0.171C0.551,-0.167 0.554,-0.162 0.554,-0.155L0.554,-0.023C0.554,-0.017 0.552,-0.012 0.548,-0.008C0.544,-0.003 0.539,-0 0.532,-0L0.085,-0C0.07,-0 0.063,-0.007 0.063,-0.022L0.063,-0.721Z" style="fill:rgb(236,236,236);fill-rule:nonzero;"/>
                </g>
                <g transform="matrix(1195.36,0,0,1195.36,8267.36,1300.75)">
                    <path d="M0.724,-0.371C0.724,-0.335 0.719,-0.302 0.71,-0.27C0.701,-0.238 0.688,-0.208 0.672,-0.181C0.655,-0.153 0.635,-0.128 0.612,-0.106C0.589,-0.084 0.563,-0.065 0.535,-0.049C0.507,-0.033 0.476,-0.021 0.444,-0.013C0.411,-0.004 0.377,-0 0.342,-0L0.096,-0C0.09,-0 0.084,-0.001 0.08,-0.004C0.075,-0.007 0.073,-0.012 0.073,-0.021L0.073,-0.72C0.073,-0.727 0.074,-0.732 0.078,-0.737C0.082,-0.741 0.088,-0.743 0.096,-0.743L0.342,-0.743C0.377,-0.743 0.411,-0.739 0.443,-0.73C0.476,-0.721 0.506,-0.709 0.534,-0.693C0.562,-0.677 0.588,-0.658 0.612,-0.636C0.635,-0.613 0.655,-0.588 0.671,-0.561C0.688,-0.533 0.701,-0.503 0.71,-0.471C0.719,-0.439 0.724,-0.405 0.724,-0.371ZM0.266,-0.564L0.266,-0.179L0.308,-0.179C0.316,-0.179 0.323,-0.179 0.331,-0.18C0.338,-0.18 0.345,-0.181 0.353,-0.182C0.378,-0.184 0.401,-0.19 0.423,-0.2C0.444,-0.21 0.463,-0.223 0.479,-0.24C0.495,-0.256 0.508,-0.276 0.517,-0.298C0.526,-0.32 0.531,-0.345 0.531,-0.371C0.531,-0.399 0.526,-0.425 0.515,-0.448C0.505,-0.472 0.491,-0.492 0.473,-0.509C0.455,-0.526 0.433,-0.54 0.409,-0.549C0.385,-0.559 0.359,-0.564 0.332,-0.564L0.266,-0.564Z" style="fill:rgb(236,236,236);fill-rule:nonzero;"/>
                </g>
            </g>
            <g transform="matrix(6.3999,0,0,1.88093,11357.6,0.657201)">
                <g transform="matrix(0.601077,0,0,1.74,-329.904,-567.236)">
                    <circle cx="658.073" cy="469.675" r="58.921" style="fill:white;"/>
                </g>
                <g transform="matrix(0.112854,0,0,0.326691,-30.4916,96.5673)">
                    <circle cx="658.073" cy="469.675" r="58.921" style="fill:rgb(227,102,143);"/>
                </g>
                <g transform="matrix(0.112854,0,0,0.326691,13.2564,96.556)">
                    <circle cx="658.073" cy="469.675" r="58.921" style="fill:rgb(255,140,66);"/>
                </g>
                <g transform="matrix(0.171823,0,0,0.497396,-47.4238,16.3857)">
                    <circle cx="658.073" cy="469.675" r="58.921" style="fill:rgb(41,209,153);"/>
                </g>
            </g>
        </g>
    </g>
</svg>
